<svg width="327.000000" height="59.000000" viewBox="0 0 327 59" fill="none" xmlns="http://www.w3.org/2000/svg" xmlns:xlink="http://www.w3.org/1999/xlink">
	<desc>
			Created with Pixso.
	</desc>
	<defs/>
	<path d="M27.59 5.85L23.32 19C23.05 19.82 22.29 20.38 21.42 20.38L7.59 20.38C5.66 20.38 4.85 22.86 6.42 24L17.6 32.12C18.3 32.63 18.6 33.53 18.33 34.36L14.06 47.51C13.46 49.35 15.57 50.88 17.14 49.74L28.32 41.62C29.02 41.11 29.97 41.11 30.67 41.62L41.85 49.74C43.42 50.88 45.53 49.35 44.93 47.51L40.66 34.36C40.39 33.53 40.69 32.63 41.39 32.12L52.57 24C54.14 22.86 53.33 20.38 51.4 20.38L37.57 20.38C36.7 20.38 35.94 19.82 35.67 19L31.4 5.85C30.8 4.01 28.19 4.01 27.59 5.85Z" fill="#FFD336" fill-opacity="1.000000" fill-rule="evenodd"/>
	<path d="M94.59 5.85L90.32 19C90.05 19.82 89.29 20.38 88.42 20.38L74.59 20.38C72.66 20.38 71.85 22.86 73.42 24L84.6 32.12C85.3 32.63 85.6 33.53 85.33 34.36L81.06 47.51C80.46 49.35 82.57 50.88 84.14 49.74L95.32 41.62C96.02 41.11 96.97 41.11 97.67 41.62L108.86 49.74C110.42 50.88 112.53 49.35 111.93 47.51L107.66 34.36C107.39 33.53 107.69 32.63 108.39 32.12L119.57 24C121.14 22.86 120.33 20.38 118.4 20.38L104.57 20.38C103.71 20.38 102.94 19.82 102.67 19L98.4 5.85C97.8 4.01 95.19 4.01 94.59 5.85Z" fill="#FFD336" fill-opacity="1.000000" fill-rule="evenodd"/>
	<path d="M161.59 5.85L157.32 19C157.05 19.82 156.28 20.38 155.42 20.38L141.59 20.38C139.66 20.38 138.85 22.86 140.42 24L151.6 32.12C152.3 32.63 152.6 33.53 152.33 34.36L148.06 47.51C147.46 49.35 149.57 50.88 151.14 49.74L162.32 41.62C163.02 41.11 163.97 41.11 164.67 41.62L175.86 49.74C177.42 50.88 179.53 49.35 178.93 47.51L174.66 34.36C174.39 33.53 174.69 32.63 175.39 32.12L186.57 24C188.14 22.86 187.33 20.38 185.4 20.38L171.57 20.38C170.71 20.38 169.94 19.82 169.67 19L165.4 5.85C164.8 4.01 162.19 4.01 161.59 5.85Z" fill="#FFD336" fill-opacity="1.000000" fill-rule="evenodd"/>
	<path d="M228.59 5.85L224.32 19C224.05 19.82 223.29 20.38 222.42 20.38L208.59 20.38C206.66 20.38 205.85 22.86 207.42 24L218.6 32.12C219.3 32.63 219.6 33.53 219.33 34.36L215.06 47.51C214.46 49.35 216.57 50.88 218.14 49.74L229.32 41.62C230.02 41.11 230.97 41.11 231.67 41.62L242.86 49.74C244.42 50.88 246.53 49.35 245.93 47.51L241.66 34.36C241.39 33.53 241.69 32.63 242.39 32.12L253.57 24C255.14 22.86 254.33 20.38 252.4 20.38L238.57 20.38C237.71 20.38 236.94 19.82 236.67 19L232.4 5.85C231.8 4.01 229.19 4.01 228.59 5.85Z" fill="#C4C4C4" fill-opacity="1.000000" fill-rule="evenodd"/>
	<path d="M295.59 5.85L291.32 19C291.05 19.82 290.29 20.38 289.42 20.38L275.59 20.38C273.66 20.38 272.85 22.86 274.42 24L285.6 32.12C286.3 32.63 286.6 33.53 286.33 34.36L282.06 47.51C281.46 49.35 283.57 50.88 285.14 49.74L296.32 41.62C297.02 41.11 297.97 41.11 298.67 41.62L309.85 49.74C311.42 50.88 313.53 49.35 312.93 47.51L308.66 34.36C308.39 33.53 308.69 32.63 309.39 32.12L320.57 24C322.14 22.86 321.33 20.38 319.4 20.38L305.57 20.38C304.71 20.38 303.94 19.82 303.67 19L299.4 5.85C298.8 4.01 296.19 4.01 295.59 5.85Z" fill="#C4C4C4" fill-opacity="1.000000" fill-rule="evenodd"/>
</svg>
